<?xml version="1.0" encoding="UTF-8"?>
<svg version="1.1" xmlns="http://www.w3.org/2000/svg" width="500" height="500">
<path d="M0 0 C0.91909149 0.00215515 1.83818298 0.0043103 2.78512573 0.00653076 C53.99498674 0.19867117 104.98634682 15.64635388 146.375 46.3125 C146.96249023 46.74449707 147.54998047 47.17649414 148.15527344 47.62158203 C154.76469208 52.50736797 161.0593493 57.65859024 167.109375 63.23046875 C169.18392036 65.1369044 171.29765931 66.9801561 173.4375 68.8125 C181.60852053 75.96624488 188.65955737 83.79036469 195.375 92.3125 C196.56416016 93.79363281 196.56416016 93.79363281 197.77734375 95.3046875 C229.19477543 135.11002748 250.31221825 186.85668042 250.578125 238.04296875 C250.58513931 238.947659 250.59215363 239.85234924 250.59938049 240.78445435 C250.6168005 243.68968735 250.62323321 246.59471668 250.625 249.5 C250.62567474 250.49148041 250.62634949 251.48296082 250.62704468 252.50448608 C250.61169249 266.6739795 250.21256564 280.38999536 247.375 294.3125 C247.0311632 296.16795267 246.6874171 298.02342214 246.34375 299.87890625 C240.04836093 332.33659542 226.94005613 365.47736837 207.375 392.3125 C206.94106934 392.91336426 206.50713867 393.51422852 206.06005859 394.13330078 C192.26711181 413.16898686 177.01823462 430.85935225 158.375 445.3125 C156.93833984 446.47458984 156.93833984 446.47458984 155.47265625 447.66015625 C111.45776238 482.6833568 56.73149676 500.86260006 0.75 500.625 C-0.16909149 500.62284485 -1.08818298 500.6206897 -2.03512573 500.61846924 C-40.21132518 500.47523139 -76.25718959 492.00461598 -110.625 475.3125 C-111.34606934 474.96493652 -112.06713867 474.61737305 -112.81005859 474.25927734 C-136.57733618 462.65917221 -157.55869473 446.50844612 -176.625 428.3125 C-177.49769531 427.48105469 -178.37039062 426.64960938 -179.26953125 425.79296875 C-185.21147529 419.99706327 -190.55582775 413.87883342 -195.625 407.3125 C-196.14078613 406.65137207 -196.65657227 405.99024414 -197.18798828 405.30908203 C-225.20150601 369.19000705 -242.81161776 326.63951227 -248.625 281.3125 C-248.71232895 280.64062653 -248.7996579 279.96875305 -248.88963318 279.27651978 C-249.56555995 273.69796354 -249.79894817 268.19848719 -249.828125 262.58203125 C-249.83864647 261.22499588 -249.83864647 261.22499588 -249.84938049 259.84054565 C-249.8668005 256.93531265 -249.87323321 254.03028332 -249.875 251.125 C-249.87567474 250.13351959 -249.87634949 249.14203918 -249.87704468 248.12051392 C-249.8616899 233.94862705 -249.45342533 220.2383518 -246.625 206.3125 C-246.29256516 204.49226116 -245.96055109 202.67194544 -245.62890625 200.8515625 C-238.34014691 162.75569062 -221.76012351 126.66892591 -197.625 96.3125 C-196.90957031 95.405 -196.19414062 94.4975 -195.45703125 93.5625 C-154.07561078 42.00051768 -93.89419932 8.42042819 -28.08779907 0.98945618 C-18.73423218 0.01775952 -9.39564812 -0.03987758 0 0 Z " fill="#A17A4D" transform="translate(249.625,-0.3125)"/>
<path d="M0 0 C8.52756658 -0.37279442 17.05166913 -0.6559787 25.58539963 -0.82899475 C29.54962971 -0.91209775 33.50824323 -1.02446755 37.46923828 -1.20703125 C65.1936274 -2.45124093 65.1936274 -2.45124093 71.53930664 3.26586914 C74.30685069 6.54823291 76.25139973 10.10619652 78.03363037 13.99786377 C79.39717388 16.82286963 81.24382114 19.13053591 83.21484375 21.55859375 C83.83101563 22.36683594 84.4471875 23.17507812 85.08203125 24.0078125 C86.00048828 25.21050781 86.00048828 25.21050781 86.9375 26.4375 C87.61296875 27.32308594 88.2884375 28.20867187 88.984375 29.12109375 C93.67317264 35.26686241 98.36841359 41.40770243 103.06616211 47.54663086 C107.38515201 53.1918882 111.69350714 58.84520549 116 64.5 C122.98820807 73.67571258 129.99037639 82.84064173 137 92 C144.6954795 102.05555472 152.37927527 112.11987203 160.05126953 122.19335938 C164.77901688 128.40001976 169.51165032 134.60290012 174.25537109 140.79736328 C177.04083454 144.43493285 179.81974775 148.07727183 182.58984375 151.7265625 C183.47700073 152.89300293 183.47700073 152.89300293 184.38208008 154.08300781 C185.51524996 155.57316034 186.6466944 157.06462708 187.77612305 158.55761719 C188.54049683 159.56163574 188.54049683 159.56163574 189.3203125 160.5859375 C189.76648926 161.1742334 190.21266602 161.7625293 190.67236328 162.36865234 C192.02205879 164.02710497 193.46267127 165.51562433 195 167 C195.32572998 166.54898926 195.65145996 166.09797852 195.98706055 165.63330078 C209.7413737 146.58886719 223.49568685 127.54443359 237.25 108.5 C238.05425415 107.38637085 238.05425415 107.38637085 238.87475586 106.25024414 C239.95878416 104.7493445 241.04293142 103.24853078 242.12719727 101.74780273 C244.82587655 98.01226033 247.52251312 94.27527746 250.21484375 90.53515625 C255.82903178 82.74084153 261.47885383 74.975464 267.1875 67.25 C272.00286929 60.73277127 276.75864473 54.17886685 281.453125 47.57421875 C286.0283544 41.14098216 290.66989257 34.75515001 295.29589844 28.35839844 C297.03519097 25.95129731 298.77185036 23.54231637 300.5078125 21.1328125 C301.08233154 20.33584961 301.65685059 19.53888672 302.2487793 18.71777344 C303.33675338 17.20841977 304.4241971 15.69868359 305.51098633 14.18847656 C306.01138428 13.49463867 306.51178223 12.80080078 307.02734375 12.0859375 C307.45781006 11.4882959 307.88827637 10.8906543 308.33178711 10.27490234 C308.88229736 9.52418457 309.43280762 8.7734668 310 8 C310.5524942 7.0058609 310.5524942 7.0058609 311.1161499 5.99163818 C313.1481878 2.68150002 314.6211275 0.39097935 318.46562195 -0.6991272 C321.51524597 -0.92640632 324.46761625 -0.8999789 327.5234375 -0.78125 C328.62475006 -0.76993042 329.72606262 -0.75861084 330.86074829 -0.74694824 C334.36729237 -0.7022777 337.8696989 -0.60192344 341.375 -0.5 C343.75645123 -0.45986136 346.13796676 -0.42336128 348.51953125 -0.390625 C354.3477582 -0.30257358 360.17358355 -0.16882893 366 0 C366 1.32 366 2.64 366 4 C355.11 4 344.22 4 333 4 C333 99.7 333 195.4 333 294 C343.89 294 354.78 294 366 294 C366 295.32 366 296.64 366 298 C322.44 298 278.88 298 234 298 C234 296.68 234 295.36 234 294 C244.89 294 255.78 294 267 294 C266.505 186.09 266.505 186.09 266 76 C261.71 81.94 257.42 87.88 253 94 C250.875625 96.92875 248.75125 99.8575 246.5625 102.875 C241.37507395 110.04001469 236.2932811 117.27533292 231.23510742 124.53198242 C226.81205535 130.86720777 222.30973594 137.14088438 217.77368164 143.39550781 C213.96121024 148.65675347 210.18546205 153.94260357 206.4375 159.25 C205.94878418 159.9411792 205.46006836 160.6323584 204.95654297 161.34448242 C204.49521973 161.99908447 204.03389648 162.65368652 203.55859375 163.328125 C203.15954834 163.8943457 202.76050293 164.46056641 202.34936523 165.04394531 C201.90407471 165.68944336 201.45878418 166.33494141 201 167 C200.3234285 167.85725677 199.64685699 168.71451355 198.94978333 169.5977478 C196.63220857 173.64177347 196.42426334 176.86098057 196.45410156 181.39208984 C196.43859505 182.62235397 196.43859505 182.62235397 196.42277527 183.87747192 C196.39341938 186.57216257 196.39184965 189.26609974 196.390625 191.9609375 C196.37563846 193.83567735 196.35891031 195.71040402 196.34051514 197.58511353 C196.29688263 202.50714739 196.27685159 207.42900315 196.26177979 212.35119629 C196.24219395 217.37876905 196.20022557 222.4061499 196.16015625 227.43359375 C196.08489853 237.28900324 196.03458015 247.14436969 196 257 C190.49263266 251.53371759 190.49263266 251.53371759 188.44921875 248.75 C187.7855127 247.85438354 187.7855127 247.85438354 187.10839844 246.94067383 C186.63950195 246.30025146 186.17060547 245.6598291 185.6875 245 C184.62452757 243.56579098 183.56067995 242.13223031 182.49609375 240.69921875 C181.93132324 239.93786621 181.36655273 239.17651367 180.78466797 238.39208984 C177.63822211 234.17473327 174.44295718 229.99468744 171.25 225.8125 C170.57541748 224.92820312 169.90083496 224.04390625 169.20581055 223.1328125 C167.82555372 221.32358119 166.44510025 219.51449989 165.06445312 217.70556641 C161.7071246 213.3056238 158.35372511 208.90268941 155 204.5 C153.66668629 202.74998505 152.33335294 200.99998506 151 199.25 C111 146.75 111 146.75 108.99926758 144.12402344 C107.66839527 142.3772637 106.3375034 140.63051886 105.0065918 138.88378906 C101.63544264 134.45933629 98.26465338 130.03461013 94.89453125 125.609375 C88.7697857 117.56772435 82.64234495 109.52821905 76.5 101.5 C68.98762141 91.6761203 61.49497946 81.83716054 54 72 C53.67 144.6 53.34 217.2 53 292 C68.51 292 84.02 292 100 292 C100 293.32 100 294.64 100 296 C67 296 34 296 0 296 C0 294.68 0 293.36 0 292 C15.51 292 31.02 292 47 292 C47 196.96 47 101.92 47 4 C31.49 4 15.98 4 0 4 C0 2.68 0 1.36 0 0 Z " fill="#FEF8F0" transform="translate(67,101)"/>
<path d="M0 0 C9.29173356 0.14163933 18.58339547 0.28764692 27.875 0.4375 C28.90029564 0.45403185 28.90029564 0.45403185 29.94630432 0.47089767 C51.30301481 0.81659755 72.65299695 1.25271072 94 2 C94 2.99 94 3.98 94 5 C86.08 5 78.16 5 70 5 C70.01160156 7.70316406 70.02320313 10.40632812 70.03515625 13.19140625 C70.10370489 33.9661984 69.99898972 54.7292746 69.5625 75.5 C69.5330278 76.98332321 69.5330278 76.98332321 69.50296021 78.49661255 C69.28940072 89.02932259 68.99994632 99.50731179 68 110 C64.40538916 106.48928493 61.04790461 102.84644528 57.8125 99 C57.33619141 98.43531006 56.85988281 97.87062012 56.36914062 97.28881836 C51.84008236 91.8786933 47.55564054 86.29605526 43.28564453 80.68115234 C41.02663914 77.72720037 38.73346832 74.80026062 36.4375 71.875 C36.02693359 71.3497876 35.61636719 70.8245752 35.19335938 70.28344727 C34.77763672 69.75420654 34.36191406 69.22496582 33.93359375 68.6796875 C33.27967651 67.80389038 33.27967651 67.80389038 32.61254883 66.91040039 C30.98922103 64.87858399 30.98922103 64.87858399 28.65893555 63.02514648 C23.79387614 58.44383064 21.82585561 55.04932743 21.37231445 48.43164062 C21.22399532 41.71140022 21.57436176 35.0209519 21.9375 28.3125 C22.03097401 25.95394183 22.12020738 23.59521155 22.20507812 21.23632812 C22.41326865 15.48582283 22.7083854 9.74927753 23 4 C15.41 4 7.82 4 0 4 C0 2.68 0 1.36 0 0 Z " fill="#FEF8F1" transform="translate(191,137)"/>
<path d="M0 0 C8.38081505 7.18355576 16.59651382 14.476871 24.61791992 22.05932617 C26.4857797 23.80038692 28.37810985 25.5155871 30.29467773 27.20288086 C47.07153548 42.02183514 47.07153548 42.02183514 48.21923828 53.35400391 C48.41575884 59.99118474 47.8769449 66.42431411 47 73 C54.92 73 62.84 73 71 73 C71 74.32 71 75.64 71 77 C39.98 77 8.96 77 -23 77 C-23 75.68 -23 74.36 -23 73 C-15.41 73 -7.82 73 0 73 C0 48.91 0 24.82 0 0 Z " fill="#FFF8F1" transform="translate(213,320)"/>
</svg>
